<?xml version="1.0" encoding="UTF-8"?>
<svg id="_图层_1" data-name="图层 1" xmlns="http://www.w3.org/2000/svg" viewBox="0 0 1506.98 296.48">
  <defs>
    <style>
      .cls-1 {
        stroke-width: 0px;
      }
    </style>
  </defs>
  <g>
    <path class="cls-1" d="M846.84,294.17c-6.78-3.32-14.38-5.62-20.16-10.21-8.49-6.74-17.99-9.75-28.18-11.16-6.53-.91-11.04-4.11-15.7-8.48-11.36-10.66-23.31-20.67-35.02-30.95-.57.29-1.14.57-1.71.86,3.91,16.57,7.81,33.15,11.97,50.81-7.61-9.7-14.74-19-22.15-28.08-2.53-3.1-5.39-6.23-8.75-8.26-6.08-3.67-12.71-6.43-19.02-9.73-4.08-2.13-5.27-4.71-1.96-9.01,4.04-5.25,7.07-11.27,10.98-16.63,1.91-2.62,1.75-4.64-.28-6.5-3.01-2.75-6.07-5.65-9.59-7.62-6.39-3.58-7.92-5.7-6.17-12.74,2.63-10.57,5.62-21.05,8.75-32.65,30.33,34.83,59.91,68.8,89.66,102.95-1.41-7.19-2.81-14.31-4.21-21.43.45-.22.89-.45,1.34-.67,19.82,16.88,35.77,37.21,50.98,58.2-.26.43-.53.87-.79,1.3Z"/>
    <path class="cls-1" d="M701,296.48c-3.65-1.91-7.33-3.77-10.93-5.75-9.49-5.21-19.32-9.36-30.12-11.11-9.04-1.46-15.19-7.76-21.31-13.87-.66-.66-1.09-2.3-.72-3.01.37-.7,1.88-1.06,2.91-1.09,4.24-.12,8.49-.05,13.2-1.24-9.52-7.55-19.03-15.1-28.68-22.75-13.02,9.35-25.82,18.55-38.62,27.74-.18-.13-.36-.25-.54-.38,5.96-8.99,11.9-17.98,17.89-26.94.45-.67,1.12-1.46,1.83-1.64,7.69-1.94,7.63-8.61,8.91-14.44,1.69-7.72,3.33-15.45,5.31-24.63,12.78,14.52,24.72,28.07,36.62,41.64.64.73,1.23,1.66,1.42,2.59,2.51,11.98,11.41,19.55,19.13,27.94,8.11,8.81,16.22,17.61,24.33,26.41-.21.18-.41.36-.62.53Z"/>
    <path class="cls-1" d="M821.15,205.81c28.46,29.95,56.7,59.67,84.94,89.39-.32.39-.64.79-.95,1.18-9.41-5.67-18.72-11.54-28.27-16.97-10.5-5.98-21.18-11.65-31.89-17.26-3.56-1.86-6.15-4.26-5.84-8.39.83-11.2-6.11-18.12-13.29-24.98-.84-.8-1.77-1.51-2.65-2.28-7.1-6.3-7.7-10.89-2.05-20.69Z"/>
    <path class="cls-1" d="M817.34.03h0l-87.45,110.77L643.89,0c-51.52,0-90.13,0-90.58.04v251.81l51.53-57.38c10.37-12.65,22.35-14.72,32.93-1.39,1.01,1.27,2.75,1.95,5.3,3.69v-77.38c12.39,15.56,24.19,30.39,36.01,45.24,6.43-6.68,12.48-13.33,18.92-19.56,9.09-8.78,16.74-8.69,25.28.56,12.95,14.03,25.55,28.37,38.83,43.16,18.35-23.49,36.57-46.82,55.5-71.05v73.77c7.39-1.84,12.51.94,16.9,5.41,10.27,10.46,20.44,21.02,30.63,31.56,4.74,4.91,9.57,9.5,16.08,12.3,3.49,1.51,6.6,4.48,9.18,7.4,4.18,4.72,7.78,9.96,11.65,14.96,1.22,1.58,2.54,3.08,4.4,5.32V.05s-38.03-.01-89.12-.02Z"/>
  </g>
  <g>
    <path class="cls-1" d="M997.41,130.62l25.91,66.52,27.07-71.35,25.91,71.35,27.52-66.52h16.31l-44.47,105.83-25.59-70.51-26.68,70.58-42.28-105.9h16.31Z"/>
    <path class="cls-1" d="M1182.52,205.96h-42.6l-11.09,24.17h-16.18l49.24-105.77,47.5,105.77h-16.44l-10.44-24.17ZM1176.4,191.85l-14.76-33.84-15.47,33.84h30.23Z"/>
    <path class="cls-1" d="M1236.85,130.62v85.4h29.26v14.12h-44.28v-99.52h15.02Z"/>
    <path class="cls-1" d="M1295.38,170.32l38.74-39.7h20.04l-44.99,45.05,45.25,54.46h-20.11l-35.84-44.28-3.09,3.09v41.19h-15.02v-99.52h15.02v39.7Z"/>
    <path class="cls-1" d="M1422.74,144.73h-39.9v23.91h38.74v14.12h-38.74v33.26h39.9v14.12h-54.91v-99.52h54.91v14.12Z"/>
    <path class="cls-1" d="M1476.17,187.72l30.81,42.41h-18.37l-28.42-40.73h-2.71v40.73h-15.02v-99.52h17.6c13.15,0,22.64,2.47,28.49,7.41,6.45,5.5,9.67,12.76,9.67,21.79,0,7.05-2.02,13.11-6.06,18.18-4.04,5.07-9.37,8.31-15.98,9.73ZM1457.48,176.31h4.77c14.22,0,21.33-5.44,21.33-16.31,0-10.18-6.92-15.28-20.75-15.28h-5.35v31.58Z"/>
  </g>
  <g>
    <g>
      <path class="cls-1" d="M0,231.65l20.95-106.99,34.16,77.34,35.38-77.34,18.82,106.99h-15.4l-9.6-60.07-29.46,64.65-28.62-64.71-10.7,60.13H0Z"/>
      <path class="cls-1" d="M145.41,132.13v99.52h-15.02v-99.52h15.02Z"/>
      <path class="cls-1" d="M184.34,132.13v85.4h29.26v14.12h-44.28v-99.52h15.02Z"/>
      <path class="cls-1" d="M282.76,146.25h-39.9v23.91h38.74v14.12h-38.74v33.26h39.9v14.12h-54.91v-99.52h54.91v14.12Z"/>
      <path class="cls-1" d="M358.75,146.95l-12.18,7.22c-2.28-3.95-4.45-6.53-6.51-7.73-2.15-1.37-4.92-2.06-8.31-2.06-4.17,0-7.63,1.18-10.38,3.54-2.75,2.32-4.12,5.24-4.12,8.77,0,4.86,3.61,8.77,10.83,11.73l9.93,4.06c8.08,3.27,13.99,7.25,17.72,11.96s5.61,10.47,5.61,17.31c0,9.15-3.05,16.72-9.15,22.69-6.15,6.02-13.77,9.02-22.88,9.02-8.64,0-15.77-2.56-21.4-7.67-5.54-5.11-9-12.31-10.38-21.59l15.21-3.35c.69,5.84,1.89,9.88,3.61,12.12,3.09,4.3,7.61,6.45,13.54,6.45,4.68,0,8.57-1.57,11.67-4.71,3.09-3.14,4.64-7.11,4.64-11.92,0-1.93-.27-3.71-.81-5.32-.54-1.61-1.38-3.09-2.51-4.45-1.14-1.35-2.61-2.62-4.42-3.8-1.8-1.18-3.95-2.31-6.45-3.38l-9.6-4c-13.62-5.76-20.43-14.18-20.43-25.27,0-7.48,2.86-13.73,8.57-18.76,5.71-5.07,12.83-7.61,21.33-7.61,11.47,0,20.43,5.59,26.88,16.76Z"/>
    </g>
    <path class="cls-1" d="M431.35,179.63l-27.39-47.5h17.08l19.01,33.71,19.98-33.71h17.21l-28.68,47.5,30.1,52.01h-16.82l-22.04-38.09-22.69,38.09h-17.02l31.26-52.01Z"/>
  </g>
</svg>